<?xml version="1.0" encoding="utf-8"?>
<!-- Generator: Adobe Illustrator 27.7.0, SVG Export Plug-In . SVG Version: 6.00 Build 0)  -->
<svg version="1.1" id="Layer_1" xmlns="http://www.w3.org/2000/svg" xmlns:xlink="http://www.w3.org/1999/xlink" x="0px" y="0px"
	  style="enable-background:new 0 0 1483 79.5;" xml:space="preserve">
<style type="text/css">
	.st0{fill:none;stroke:#0045B6;}
</style>
<path class="st0" d="M74.3,100c0,0,28.6-68.7,132.7-83.9C350-4.7,420,89.6,578.9,83.7c211.2-8,28.4-151.4,242.3-153.2
	c132.9-1.1,189.8,73.5,307,55.7c83-12.6,106.5-67.3,106.5-67.3"/>
<path class="st0" d="M86.6,105.6c0,0,28.6-68.7,132.7-83.9c143-20.9,213,73.5,371.9,67.5c211.2-8,28.4-151.4,242.3-153.2
	c132.9-1.1,189.8,73.5,307,55.7c83-12.6,106.5-67.3,106.5-67.3"/>
<path class="st0" d="M98.9,111.2c0,0,28.6-68.7,132.7-83.9c143-20.9,213,73.5,371.9,67.5c211.2-8,28.4-151.4,242.3-153.2
	c132.9-1.1,189.8,73.5,307,55.7c83-12.6,106.5-67.3,106.5-67.3"/>
<path class="st0" d="M111.1,116.8c0,0,28.6-68.7,132.7-83.9c143-20.9,213,73.5,371.9,67.5c211.2-8,28.4-151.4,242.3-153.2
	c132.9-1.1,189.8,73.5,307,55.7c83-12.6,106.5-67.3,106.5-67.3"/>
<path class="st0" d="M123.4,122.4c0,0,28.6-68.7,132.7-83.9c143-20.9,213,73.5,371.9,67.5c211.2-8,28.4-151.4,242.3-153.2
	c132.9-1.1,189.8,73.5,307,55.7c83-12.6,106.5-67.3,106.5-67.3"/>
<path class="st0" d="M135.7,128c0,0,28.6-68.7,132.7-83.9c143-20.9,213,73.5,371.9,67.5c211.2-8,28.4-151.4,242.3-153.2
	c132.9-1.1,189.8,73.5,307,55.7c83-12.6,106.5-67.3,106.5-67.3"/>
<path class="st0" d="M147.9,133.6c0,0,28.6-68.7,132.7-83.9c143-20.9,213,73.5,371.9,67.5c211.2-8,28.4-151.4,242.3-153.2
	c132.9-1.1,189.8,73.5,307,55.7c83-12.6,106.5-67.3,106.5-67.3"/>
<path class="st0" d="M160.2,139.2c0,0,28.6-68.7,132.7-83.9c143-20.9,213,73.5,371.9,67.5c211.2-8,28.4-151.4,242.3-153.2
	c132.9-1.1,189.8,73.5,307,55.7c83-12.6,106.5-67.3,106.5-67.3"/>
<path class="st0" d="M172.5,144.8c0,0,28.6-68.7,132.7-83.9c143-20.9,213,73.5,371.9,67.5c211.2-7.9,28.4-151.4,242.3-153.2
	c132.9-1.1,189.8,73.5,307,55.7c83-12.6,106.5-67.3,106.5-67.3"/>
<path class="st0" d="M184.8,150.5c0,0,28.6-68.7,132.7-83.9c143-20.9,213,73.5,371.9,67.5c211.2-8,28.4-151.4,242.3-153.2
	c132.9-1.1,189.8,73.5,307,55.7c83-12.6,106.5-67.3,106.5-67.3"/>
<path class="st0" d="M197,156.1c0,0,28.6-68.7,132.7-83.9c143-20.9,213,73.5,371.9,67.5c211.2-8,28.4-151.4,242.3-153.2
	c132.9-1.1,189.8,73.5,307,55.7c83-12.6,106.5-67.3,106.5-67.3"/>
<path class="st0" d="M209.3,161.7c0,0,28.6-68.7,132.7-83.9c143-20.9,213,73.5,371.9,67.5C925,137.3,742.2-6.1,956.2-7.9
	C1089-9,1146,65.6,1263.2,47.8c83-12.6,106.5-67.3,106.5-67.3"/>
<path class="st0" d="M221.6,167.3c0,0,28.6-68.7,132.7-83.9c143-20.9,213,73.5,371.9,67.5c211.2-8,28.4-151.4,242.3-153.2
	c132.9-1.1,189.8,73.5,307,55.7c83-12.6,106.5-67.3,106.5-67.3"/>
<path class="st0" d="M233.8,172.9c0,0,28.6-68.7,132.7-83.9c143-20.9,213,73.5,371.9,67.5C949.6,148.5,766.8,5.1,980.7,3.3
	c132.9-1.1,189.8,73.5,307,55.7c83-12.6,106.5-67.3,106.5-67.3"/>
<path class="st0" d="M246.1,178.5c0,0,28.6-68.7,132.7-83.9c143-20.9,213,73.5,371.9,67.5C961.8,154.1,779,10.7,993,8.9
	c132.9-1.1,189.8,73.5,307,55.7c83-12.6,118.8-84.1,118.8-84.1"/>
<path class="st0" d="M258.4,184.1c0,0,28.6-68.7,132.7-83.9c143-20.9,213,73.5,371.9,67.5c211.2-8,28.4-151.4,242.3-153.2
	c132.9-1.1,189.8,73.5,307,55.7c83-12.6,118.8-84.1,118.8-84.1"/>
<path class="st0" d="M270.6,189.7c0,0,28.6-68.7,132.7-83.9c143-20.9,213,73.5,371.9,67.5c211.2-7.9,28.4-151.4,242.3-153.2
	c132.9-1.1,189.8,73.5,307,55.7c83-12.6,118.8-84.1,118.8-84.1"/>
</svg>
