<svg width="1483" height="128" viewBox="0 0 1483 128" fill="none" xmlns="http://www.w3.org/2000/svg">
<path d="M22.2953 172.266C22.2953 172.266 47.3928 90.655 150.613 66.9058C292.404 34.2818 367.048 140.004 525.393 123.779C735.913 102.207 546.155 -54.0823 759.741 -68.6424C892.386 -77.6847 952.984 5.81696 1069.19 -21.6842C1151.42 -41.1456 1172.18 -106.25 1172.18 -106.25" stroke="#0045B6"/>
<path d="M34.8301 178.071C34.8301 178.071 59.9276 96.4602 163.147 72.7109C304.939 40.0869 379.582 145.809 537.928 129.584C748.448 108.012 558.689 -48.2772 772.276 -62.8372C904.921 -71.8795 965.519 11.6221 1081.72 -15.879C1163.95 -35.3404 1184.71 -100.444 1184.71 -100.444" stroke="#0045B6"/>
<path d="M47.3649 183.876C47.3649 183.876 72.4624 102.265 175.682 78.5161C317.474 45.8921 392.117 151.614 550.462 135.389C760.983 113.817 571.224 -42.472 784.81 -57.032C917.455 -66.0744 978.054 17.4273 1094.26 -10.0739C1176.49 -29.5353 1197.25 -94.6393 1197.25 -94.6393" stroke="#0045B6"/>
<path d="M59.8997 189.681C59.8997 189.681 84.9972 108.071 188.217 84.3213C330.008 51.6973 404.652 157.42 562.997 141.194C773.517 119.622 583.759 -36.6668 797.345 -51.2269C929.99 -60.2692 990.589 23.2325 1106.79 -4.2687C1189.02 -23.7301 1209.78 -88.8341 1209.78 -88.8341" stroke="#0045B6"/>
<path d="M72.4345 195.487C72.4345 195.487 97.5319 113.876 200.752 90.1265C342.543 57.5025 417.187 163.225 575.532 146.999C786.052 125.427 596.294 -30.8616 809.88 -45.4217C942.525 -54.464 1003.12 29.0377 1119.32 1.53648C1201.56 -17.9249 1222.32 -83.0289 1222.32 -83.0289" stroke="#0045B6"/>
<path d="M84.9692 201.292C84.9692 201.292 110.067 119.681 213.287 95.9321C355.078 63.3081 429.722 169.03 588.067 152.805C798.587 131.233 608.829 -25.056 822.415 -39.616C955.06 -48.6583 1015.66 34.8433 1131.86 7.34214C1214.09 -12.1193 1234.85 -77.2232 1234.85 -77.2232" stroke="#0045B6"/>
<path d="M97.5039 207.097C97.5039 207.097 122.601 125.487 225.821 101.737C367.613 69.1133 442.256 174.836 600.601 158.61C811.122 137.038 621.363 -19.2508 834.949 -33.8108C967.594 -42.8532 1028.19 40.6485 1144.39 13.1473C1226.62 -6.31408 1247.39 -71.4181 1247.39 -71.4181" stroke="#0045B6"/>
<path d="M110.039 212.902C110.039 212.902 135.136 131.291 238.356 107.542C380.147 74.918 454.791 180.64 613.136 164.415C823.656 142.843 633.898 -13.4461 847.484 -28.0062C980.129 -37.0485 1040.73 46.4532 1156.93 18.952C1239.16 -0.509388 1259.92 -65.6134 1259.92 -65.6134" stroke="#0045B6"/>
<path d="M122.573 218.708C122.573 218.708 147.671 137.097 250.891 113.348C392.682 80.7237 467.326 186.446 625.671 170.22C836.191 148.649 646.433 -7.64044 860.019 -22.2005C992.664 -31.2428 1053.26 52.2589 1169.46 24.7577C1251.69 5.29628 1272.46 -59.8077 1272.46 -59.8077" stroke="#0045B6"/>
<path d="M135.108 224.513C135.108 224.513 160.205 142.902 263.425 119.153C405.217 86.5288 479.86 192.251 638.205 176.026C848.726 154.454 658.967 -1.83527 872.553 -16.3953C1005.2 -25.4376 1065.8 58.064 1182 30.5628C1264.23 11.1015 1284.99 -54.0025 1284.99 -54.0025" stroke="#0045B6"/>
<path d="M147.643 230.318C147.643 230.318 172.74 148.707 275.96 124.958C417.751 92.334 492.395 198.056 650.74 181.831C861.26 160.259 671.502 3.96991 885.088 -10.5901C1017.73 -19.6325 1078.33 63.8692 1194.53 36.368C1276.76 16.9066 1297.52 -48.1974 1297.52 -48.1974" stroke="#0045B6"/>
<path d="M160.177 236.123C160.177 236.123 185.275 154.512 288.495 130.763C430.286 98.1392 504.93 203.861 663.275 187.636C873.795 166.064 684.037 9.77508 897.623 -4.78496C1030.27 -13.8273 1090.87 69.6744 1207.07 42.1732C1289.3 22.7118 1310.06 -42.3922 1310.06 -42.3922" stroke="#0045B6"/>
<path d="M172.712 241.929C172.712 241.929 197.81 160.318 301.029 136.568C442.821 103.944 517.464 209.667 675.81 193.441C886.33 171.869 696.571 15.5803 910.158 1.02021C1042.8 -8.02212 1103.4 75.4796 1219.6 47.9784C1301.83 28.517 1322.59 -36.587 1322.59 -36.587" stroke="#0045B6"/>
<path d="M185.247 247.734C185.247 247.734 210.344 166.123 313.564 142.374C455.356 109.75 529.999 215.472 688.344 199.246C898.865 177.675 709.106 21.3854 922.692 6.82539C1055.34 -2.21694 1115.94 81.2847 1232.14 53.7835C1314.37 34.3222 1335.13 -30.7818 1335.13 -30.7818" stroke="#0045B6"/>
<path d="M197.782 253.539C197.782 253.539 222.879 171.928 326.099 148.179C467.89 115.555 542.534 221.277 700.879 205.051C911.399 183.48 721.641 27.1906 935.227 12.6306C1067.87 3.58823 1128.47 87.0899 1244.67 59.5887C1326.9 40.1273 1347.66 -24.9767 1347.66 -24.9767" stroke="#0045B6"/>
<path d="M210.316 259.344C210.316 259.344 235.414 177.733 338.634 153.984C480.425 121.36 555.069 227.082 713.414 210.857C923.934 189.285 734.176 32.9958 947.762 18.4357C1080.41 9.39341 1141.01 92.8951 1257.21 65.3939C1339.44 45.9325 1360.2 -19.1715 1360.2 -19.1715" stroke="#0045B6"/>
<path d="M222.851 265.15C222.851 265.15 247.949 183.539 351.169 159.79C492.96 127.166 567.603 232.888 725.949 216.662C936.469 195.091 746.711 38.8015 960.297 24.2414C1092.94 15.1991 1153.54 98.7007 1269.74 71.1996C1351.97 51.7382 1372.73 -13.3658 1372.73 -13.3658" stroke="#0045B6"/>
</svg>
