<svg id="Layer_1" data-name="Layer 1" xmlns="http://www.w3.org/2000/svg" viewBox="0 0 455.86 449.02"><title>junction_logos_2018</title><g id="Layer_2" data-name="Layer 2"><g id="Layer_1-2" data-name="Layer 1-2"><path class="cls-1" d="M259.51,312.79,230.6,283.88c-19.06-19.06-13.47-55.69,12.47-81.61l41.38-41.37,17.31,17.31-41.36,41.37c-15.84,15.84-21.66,37.79-12.47,47l28.9,28.9Zm24.94-139.91-35.39,35.39c-22.63,22.63-28.23,53.87-12.47,69.63l22.92,22.91,5.34-5.34-22.92-22.92c-12.81-12.82-7.22-39.26,12.47-59l35.39-35.39Z"/><path class="cls-1" d="M180.63,299.35,163.32,282l41.38-41.38c11.92-11.92,26.49-20,41-22.86a58.31,58.31,0,0,1,11-1.09c11.8,0,22,4,29.52,11.49l30.12,28.91-17.31,17.31L269,245.5c-3.89-3.89-10.63-5.21-18.59-3.67-9.81,1.9-19.89,7.63-28.39,16.13ZM175.3,282l5.34,5.34L216,252c9.68-9.67,21.32-16.25,32.76-18.46a41.78,41.78,0,0,1,7.92-.8c7.51,0,13.83,2.34,18.27,6.79l24.13,22.92,5.34-5.34-24.13-22.92c-5.89-5.89-14-9-23.54-9a49.72,49.72,0,0,0-9.42.95c-12.91,2.51-25.93,9.8-36.67,20.53Z"/><path class="cls-1" d="M169.27,288.12,152,270.8l41.38-41.37c15.84-15.84,21.88-37.57,12.93-46.52l-28.45-28.44,17.34-17.32,28.45,28.44c18.81,18.81,13,55.21-12.93,81.15Zm-5.34-17.31,5.34,5.34,35.39-35.39c22.63-22.63,28.44-53.66,12.93-69.17l-22.43-22.46-5.33,5.34,22.45,22.45c12.56,12.56,6.76,38.8-12.93,58.5Z"/><path class="cls-1" d="M196.83,232.39c-11.68,0-21.69-3.84-28.95-11.1l-28.44-28.45,17.31-17.31L185.2,204c3.4,3.4,8.25,4.12,11.73,4.12,10.94,0,24.27-6.53,34.79-17.05l41.37-41.36L290.4,167,249,208.36C234,223.4,214.47,232.39,196.83,232.39Zm-45.41-39.54,22.46,22.45c5.64,5.64,13.58,8.61,23,8.61,15.44,0,32.71-8.06,46.21-21.56L278.43,167l-5.34-5.34L237.68,197c-12,12-27.68,19.53-40.78,19.53-7.27,0-13.4-2.28-17.72-6.58l-22.46-22.45Z"/><path class="cls-1" d="M341.3,142.52l8.61-8.61A153.65,153.65,0,0,0,319,103l-8.61,8.61A141.44,141.44,0,0,1,341.3,142.52Z"/><path class="cls-1" d="M114.56,307.42,105.93,316a153.61,153.61,0,0,0,30.92,30.92l8.61-8.61A141.49,141.49,0,0,1,114.56,307.42Z"/><path class="cls-1" d="M227.93,93.81a130.4,130.4,0,0,1,75.94,24.3l6.52-6.52a139.83,139.83,0,0,0-164.87,0l6.52,6.52A130.4,130.4,0,0,1,227.93,93.81Z"/><path class="cls-1" d="M87.67,225a139.49,139.49,0,0,0,26.89,82.45l6.52-6.52a130.72,130.72,0,0,1,0-151.87l-6.5-6.54A139.48,139.48,0,0,0,87.67,225Z"/><path class="cls-1" d="M227.93,356.13A130.4,130.4,0,0,1,152,331.83l-6.52,6.52a139.84,139.84,0,0,0,164.93,0l-6.52-6.52A130.42,130.42,0,0,1,227.93,356.13Z"/><path class="cls-1" d="M368.19,225a139.49,139.49,0,0,0-26.89-82.45L334.78,149a130.72,130.72,0,0,1,0,151.83l6.52,6.52A139.47,139.47,0,0,0,368.19,225Z"/><path class="cls-1" d="M390.81,225a162,162,0,0,0-33.36-98.59l-7.52,7.52a152,152,0,0,1,0,182.13l7.52,7.52A162,162,0,0,0,390.81,225Z"/><path class="cls-1" d="M227.93,377.28A151.5,151.5,0,0,1,136.85,347l-7.5,7.52a162.42,162.42,0,0,0,197.24,0L319.06,347A151.51,151.51,0,0,1,227.93,377.28Z"/><path class="cls-1" d="M129.35,95.43l7.53,7.52a152,152,0,0,1,182.13,0l7.52-7.52a162.42,162.42,0,0,0-197.18,0Z"/><path class="cls-1" d="M65.06,225a162,162,0,0,0,33.36,98.61l7.52-7.52a152,152,0,0,1,0-182.19l-7.5-7.52A162,162,0,0,0,65.06,225Z"/><path class="cls-1" d="M106,133.86l8.61,8.61a141.45,141.45,0,0,1,30.93-30.91l-8.63-8.61A153.61,153.61,0,0,0,106,133.86Z"/><path class="cls-1" d="M350,316l-8.61-8.61a141.41,141.41,0,0,1-30.91,30.93L319,347A153.53,153.53,0,0,0,350,316Z"/></g></g></svg>