<?xml version="1.0" encoding="utf-8"?>
<!-- Generator: Adobe Illustrator 21.0.2, SVG Export Plug-In . SVG Version: 6.00 Build 0)  -->
<svg version="1.1" id="Layer_1" xmlns="http://www.w3.org/2000/svg" xmlns:xlink="http://www.w3.org/1999/xlink" x="0px" y="0px"
	 viewBox="0 0 1700 990" style="enable-background:new 0 0 1700 990;" xml:space="preserve">
<g>
	<path d="M972.3,367.6H956v-9.6h44.5v9.6h-16.4V409h-11.8V367.6z"/>
	<path d="M1047.4,399.5v9.5h-39.6v-51.1h38.6v9.5h-26.9v11.1h23.7v9.2h-23.7v11.8L1047.4,399.5L1047.4,399.5z"/>
	<path d="M1066,406.5c-4.2-2.3-7.5-5.4-9.9-9.4c-2.4-4-3.6-8.6-3.6-13.6c0-5.1,1.2-9.6,3.6-13.6c2.4-4,5.7-7.2,9.9-9.4
		c4.2-2.3,8.9-3.4,14.2-3.4c4.4,0,8.4,0.8,12,2.3c3.6,1.6,6.6,3.8,9,6.7l-7.6,7c-3.5-4-7.7-6-12.8-6c-3.2,0-6,0.7-8.5,2.1
		s-4.4,3.3-5.8,5.8c-1.4,2.5-2.1,5.3-2.1,8.5c0,3.2,0.7,6,2.1,8.5c1.4,2.5,3.3,4.4,5.8,5.8s5.3,2.1,8.5,2.1c5.1,0,9.4-2,12.8-6.1
		l7.6,7c-2.4,3-5.5,5.2-9.1,6.8c-3.6,1.6-7.6,2.3-12,2.3C1074.9,409.9,1070.2,408.8,1066,406.5z"/>
	<path d="M1154,357.9V409h-11.8v-21H1119v21h-11.8v-51.1h11.8v20.1h23.2v-20.1H1154z"/>
	<path d="M1002.3,479.5v9.5h-39.6v-51.1h38.6v9.5h-26.9v11.1h23.7v9.2h-23.7v11.8L1002.3,479.5L1002.3,479.5z"/>
	<path d="M1058.2,489l-0.1-30.7l-15,25.3h-5.3l-15-24.6v30h-11.1v-51.1h9.8l19.1,31.8l18.8-31.8h9.7l0.1,51.1H1058.2z"/>
	<path d="M1125.8,467.1c1.7,2.2,2.5,4.8,2.5,8c0,4.5-1.7,7.9-5.2,10.3c-3.5,2.4-8.6,3.6-15.2,3.6h-26.4v-51.1h25
		c6.2,0,11,1.2,14.3,3.6s5,5.6,5,9.7c0,2.5-0.6,4.7-1.8,6.6c-1.2,1.9-2.9,3.5-5,4.6C1121.9,463.4,1124.1,464.9,1125.8,467.1z
		 M1093.2,446.8v12h11.8c2.9,0,5.1-0.5,6.6-1.5c1.5-1,2.3-2.5,2.3-4.5c0-2-0.8-3.5-2.3-4.5c-1.5-1-3.7-1.5-6.6-1.5L1093.2,446.8
		L1093.2,446.8z M1114,478.6c1.6-1,2.4-2.6,2.4-4.7c0-4.2-3.1-6.4-9.4-6.4h-13.8v12.6h13.8C1110.1,480.1,1112.4,479.6,1114,478.6z"
		/>
	<path d="M1169.9,478.1h-23.7l-4.5,11h-12.1l22.8-51.1h11.7l22.8,51.1h-12.4L1169.9,478.1z M1166.2,469.1l-8.1-19.6l-8.1,19.6
		H1166.2z"/>
	<path d="M1198.3,488.3c-3.8-1.1-6.8-2.5-9.1-4.3l4-8.9c2.2,1.6,4.8,2.9,7.8,3.9c3,1,6,1.5,9.1,1.5c3.4,0,5.8-0.5,7.4-1.5
		c1.6-1,2.4-2.3,2.4-4c0-1.2-0.5-2.2-1.4-3s-2.2-1.4-3.6-1.9c-1.5-0.5-3.5-1-6-1.6c-3.9-0.9-7.1-1.8-9.6-2.8
		c-2.5-0.9-4.6-2.4-6.4-4.5s-2.7-4.8-2.7-8.2c0-3,0.8-5.7,2.4-8.1c1.6-2.4,4-4.3,7.3-5.7s7.2-2.1,11.9-2.1c3.3,0,6.4,0.4,9.6,1.2
		c3.1,0.8,5.8,1.9,8.2,3.4l-3.6,9c-4.7-2.7-9.4-4-14.2-4c-3.3,0-5.8,0.5-7.3,1.6s-2.4,2.5-2.4,4.2s0.9,3.1,2.7,3.9
		c1.8,0.9,4.6,1.7,8.4,2.5c3.9,0.9,7.1,1.9,9.6,2.8c2.5,0.9,4.6,2.4,6.4,4.4c1.8,2,2.7,4.7,2.7,8.1c0,2.9-0.8,5.6-2.4,8
		c-1.6,2.4-4.1,4.3-7.3,5.7c-3.3,1.4-7.2,2.1-11.9,2.1C1205.9,489.9,1202,489.4,1198.3,488.3z"/>
	<path d="M1244.8,488.3c-3.8-1.1-6.8-2.5-9.1-4.3l4-8.9c2.2,1.6,4.8,2.9,7.8,3.9c3,1,6,1.5,9.1,1.5c3.4,0,5.8-0.5,7.4-1.5
		c1.6-1,2.4-2.3,2.4-4c0-1.2-0.5-2.2-1.4-3s-2.2-1.4-3.6-1.9c-1.5-0.5-3.5-1-6-1.6c-3.9-0.9-7.1-1.8-9.6-2.8
		c-2.5-0.9-4.6-2.4-6.4-4.5s-2.7-4.8-2.7-8.2c0-3,0.8-5.7,2.4-8.1c1.6-2.4,4-4.3,7.3-5.7c3.2-1.4,7.2-2.1,11.9-2.1
		c3.3,0,6.4,0.4,9.6,1.2c3.1,0.8,5.8,1.9,8.2,3.4l-3.6,9c-4.7-2.7-9.4-4-14.2-4c-3.3,0-5.8,0.5-7.3,1.6c-1.6,1.1-2.4,2.5-2.4,4.2
		s0.9,3.1,2.7,3.9c1.8,0.9,4.6,1.7,8.4,2.5c3.9,0.9,7.1,1.9,9.6,2.8c2.5,0.9,4.6,2.4,6.4,4.4c1.8,2,2.7,4.7,2.7,8.1
		c0,2.9-0.8,5.6-2.4,8c-1.6,2.4-4.1,4.3-7.3,5.7c-3.3,1.4-7.2,2.1-11.9,2.1C1252.5,489.9,1248.6,489.4,1244.8,488.3z"/>
	<path d="M1309.8,470.9V489h-11.8v-18.2l-19.8-32.9h12.6l13.7,22.7l13.7-22.7h11.6L1309.8,470.9z"/>
	<g>
		<g>
			<path d="M521.6,323.7c-9.4,0-17.1-7.7-17.1-17.1c0-9.4,7.7-17.1,17.1-17.1c0.8,0,1.5,0.1,2.3,0.2c8.4,1.2,14.8,8.4,14.8,16.9
				C538.7,316.1,531,323.7,521.6,323.7z M521.6,299.5c-3.9,0-7.1,3.2-7.1,7.1c0,3.9,3.2,7.1,7.1,7.1c3.9,0,7.1-3.2,7.1-7.1
				c0-3.5-2.6-6.5-6.1-7C522.2,299.6,521.9,299.5,521.6,299.5z"/>
		</g>
		<g>
			<path d="M682.4,341.7c-9.4,0-17.1-7.7-17.1-17.1c0-9.4,7.7-17.1,17.1-17.1c0.8,0,1.5,0.1,2.3,0.2c8.4,1.2,14.8,8.4,14.8,16.9
				C699.5,334.1,691.8,341.7,682.4,341.7z M682.4,317.6c-3.9,0-7.1,3.2-7.1,7.1c0,3.9,3.2,7.1,7.1,7.1c3.9,0,7.1-3.2,7.1-7.1
				c0-3.5-2.6-6.5-6.1-7C683.1,317.6,682.7,317.6,682.4,317.6z"/>
		</g>
		<g>
			<path d="M720.5,457c-9.4,0-17.1-7.7-17.1-17.1c0-9.4,7.7-17.1,17.1-17.1c0.8,0,1.5,0.1,2.3,0.2c8.4,1.2,14.8,8.4,14.8,16.9
				C737.6,449.4,729.9,457,720.5,457z M720.5,432.9c-3.9,0-7.1,3.2-7.1,7.1c0,3.9,3.2,7.1,7.1,7.1c3.9,0,7.1-3.2,7.1-7.1
				c0-3.5-2.6-6.5-6.1-7C721.1,432.9,720.8,432.9,720.5,432.9z"/>
		</g>
		<g>
			<path d="M863.2,424.7c-9.4,0-17.1-7.7-17.1-17.1s7.7-17.1,17.1-17.1c0.8,0,1.5,0.1,2.3,0.2c8.4,1.2,14.8,8.4,14.8,16.9
				C880.3,417.1,872.6,424.7,863.2,424.7z M863.2,400.6c-3.9,0-7.1,3.2-7.1,7.1c0,3.9,3.2,7.1,7.1,7.1c3.9,0,7.1-3.2,7.1-7.1
				c0-3.5-2.6-6.5-6.1-7C863.8,400.6,863.5,400.6,863.2,400.6z"/>
		</g>
		<g>
			<path d="M660,619.6c-9.4,0-17.1-7.7-17.1-17.1c0-9.4,7.7-17.1,17.1-17.1c0.8,0,1.5,0.1,2.3,0.2c8.4,1.2,14.8,8.4,14.8,16.9
				C677.1,611.9,669.4,619.6,660,619.6z M660,595.4c-3.9,0-7.1,3.2-7.1,7.1c0,3.9,3.2,7.1,7.1,7.1s7.1-3.2,7.1-7.1
				c0-3.5-2.6-6.5-6.1-7C660.6,595.5,660.3,595.4,660,595.4z"/>
		</g>
		<g>
			<path d="M800.4,586.3c-9.4,0-17.1-7.7-17.1-17.1c0-9.4,7.7-17.1,17.1-17.1c0.8,0,1.5,0.1,2.3,0.2c8.4,1.2,14.8,8.4,14.8,16.9
				C817.4,578.7,809.8,586.3,800.4,586.3z M800.4,562.2c-3.9,0-7.1,3.2-7.1,7.1c0,3.9,3.2,7.1,7.1,7.1c3.9,0,7.1-3.2,7.1-7.1
				c0-3.5-2.6-6.5-6.1-7C801,562.2,800.7,562.2,800.4,562.2z"/>
		</g>
		<g>
			<path d="M707.8,744c-9.4,0-17.1-7.7-17.1-17.1c0-9.4,7.7-17.1,17.1-17.1c0.8,0,1.5,0.1,2.3,0.2c8.4,1.2,14.8,8.4,14.8,16.9
				C724.9,736.3,717.2,744,707.8,744z M707.8,719.8c-3.9,0-7.1,3.2-7.1,7.1c0,3.9,3.2,7.1,7.1,7.1s7.1-3.2,7.1-7.1
				c0-3.5-2.6-6.5-6.1-7C708.4,719.8,708.1,719.8,707.8,719.8z"/>
		</g>
		<g>
			<path d="M843.9,698.6c-9.4,0-17.1-7.7-17.1-17.1c0-9.4,7.7-17.1,17.1-17.1c0.8,0,1.5,0.1,2.3,0.2c8.4,1.2,14.8,8.4,14.8,16.9
				C860.9,691,853.3,698.6,843.9,698.6z M843.9,674.5c-3.9,0-7.1,3.2-7.1,7.1c0,3.9,3.2,7.1,7.1,7.1s7.1-3.2,7.1-7.1
				c0-3.5-2.6-6.5-6.1-7C844.5,674.5,844.2,674.5,843.9,674.5z"/>
		</g>
		<g>
			<path d="M619.7,474.2c-9.4,0-17.1-7.7-17.1-17.1c0-9.4,7.7-17.1,17.1-17.1c0.8,0,1.5,0.1,2.3,0.2c8.4,1.2,14.8,8.4,14.8,16.9
				C636.7,466.6,629.1,474.2,619.7,474.2z M619.7,450.1c-3.9,0-7.1,3.2-7.1,7.1c0,3.9,3.2,7.1,7.1,7.1c3.9,0,7.1-3.2,7.1-7.1
				c0-3.5-2.6-6.5-6.1-7C620.3,450.1,620,450.1,619.7,450.1z"/>
		</g>
		<g>
			<path d="M620.7,383.3c-9.4,0-17.1-7.7-17.1-17.1c0-9.4,7.7-17.1,17.1-17.1c0.8,0,1.5,0.1,2.3,0.2c8.4,1.2,14.8,8.4,14.8,16.9
				C637.8,375.6,630.1,383.3,620.7,383.3z M620.7,359.1c-3.9,0-7.1,3.2-7.1,7.1c0,3.9,3.2,7.1,7.1,7.1s7.1-3.2,7.1-7.1
				c0-3.5-2.6-6.5-6.1-7C621.3,359.1,621,359.1,620.7,359.1z"/>
		</g>
		<g>
			<path d="M658.9,521.6c-9.4,0-17.1-7.7-17.1-17.1c0-9.4,7.7-17.1,17.1-17.1c0.8,0,1.5,0.1,2.3,0.2c8.4,1.2,14.8,8.4,14.8,16.9
				C676,513.9,668.3,521.6,658.9,521.6z M658.9,497.4c-3.9,0-7.1,3.2-7.1,7.1c0,3.9,3.2,7.1,7.1,7.1c3.9,0,7.1-3.2,7.1-7.1
				c0-3.5-2.6-6.5-6.1-7C659.6,497.4,659.2,497.4,658.9,497.4z"/>
		</g>
		<g>
			<path d="M641.3,565.1c-9.5,0-18.5-3.7-25.3-10.5c-2-2-2-5.1,0-7.1c2-2,5.1-2,7.1,0c4.9,4.9,11.3,7.5,18.2,7.5
				c14.2,0,25.7-11.5,25.7-25.7c0-4.2-1-8.2-2.9-11.9c-1.3-2.4-0.3-5.5,2.1-6.7c2.4-1.3,5.5-0.3,6.7,2.1c2.6,5.1,4,10.8,4,16.5
				C677.1,549.1,661,565.1,641.3,565.1z"/>
		</g>
		<g>
			<path d="M641.3,609.6c-24.6,0-47.6-11.1-62.9-30.4c-1.7-2.2-1.4-5.3,0.8-7c2.2-1.7,5.3-1.4,7,0.8c13.4,16.9,33.5,26.6,55.1,26.6
				c1.4,0,2.8,0,4.2-0.1c2.8-0.2,5.1,1.9,5.3,4.7c0.2,2.8-1.9,5.1-4.7,5.3C644.5,609.6,642.9,609.6,641.3,609.6z"/>
		</g>
		<g>
			<path d="M708.4,568.5c-0.8,0-1.5-0.2-2.3-0.5c-2.5-1.3-3.4-4.3-2.2-6.7c5-9.9,7.6-20.6,7.6-31.8c0-38.7-31.5-70.2-70.2-70.2
				c-2.4,0-4.8,0.1-7.2,0.4c-2.7,0.3-5.2-1.7-5.5-4.5c-0.3-2.7,1.7-5.2,4.5-5.5c2.7-0.3,5.5-0.4,8.2-0.4c44.2,0,80.2,36,80.2,80.2
				c0,12.8-2.9,25-8.7,36.4C712,567.5,710.2,568.5,708.4,568.5z"/>
		</g>
		<g>
			<path d="M641.3,654.1c-42.1,0-81.1-21-104.3-56.3c-1.5-2.3-0.9-5.4,1.4-6.9c2.3-1.5,5.4-0.9,6.9,1.4
				c21.3,32.4,57.2,51.8,95.9,51.8c63.3,0,114.7-51.5,114.7-114.7c0-28.3-10.4-55.5-29.2-76.5c-1.8-2.1-1.7-5.2,0.4-7.1
				c2.1-1.8,5.2-1.7,7.1,0.4c20.5,22.9,31.8,52.4,31.8,83.2C766,598.2,710.1,654.1,641.3,654.1z"/>
		</g>
		<g>
			<path d="M641.3,743.1c-78.9,0-151.1-43.2-188.4-112.8c-1.3-2.4-0.4-5.5,2-6.8s5.5-0.4,6.8,2c35.6,66.3,104.4,107.5,179.6,107.5
				c13.3,0,26.6-1.3,39.6-3.8c2.7-0.5,5.3,1.2,5.9,3.9c0.5,2.7-1.2,5.3-3.9,5.9C669.2,741.8,655.3,743.1,641.3,743.1z"/>
		</g>
		<g>
			<path d="M681.8,739.2c-2.3,0-4.4-1.7-4.9-4c-0.5-2.7,1.2-5.3,3.9-5.9c4.2-0.8,8.5-1.8,12.6-2.9c2.7-0.7,5.4,0.9,6.1,3.6
				s-0.9,5.4-3.6,6.1c-4.4,1.2-8.8,2.2-13.3,3.1C682.5,739.2,682.1,739.2,681.8,739.2z"/>
		</g>
		<g>
			<path d="M721.2,727.3c-2,0-3.8-1.2-4.6-3.1c-1.1-2.6,0.2-5.5,2.7-6.5C795.7,686,845,612.1,845,529.4
				c0-91.8-61.8-172.6-150.2-196.6c-2.7-0.7-4.2-3.5-3.5-6.1c0.7-2.7,3.5-4.2,6.1-3.5c92.8,25.2,157.6,110,157.6,206.3
				c0,43.1-12.8,84.6-36.9,120.1c-23.6,34.6-56.4,61.4-95,77.4C722.5,727.2,721.8,727.3,721.2,727.3z"/>
		</g>
		<g>
			<path d="M641.3,787.6c-48.8,0-96.3-13.7-137.4-39.5c-40-25.2-72.3-60.7-93.5-102.9c-1.2-2.5-0.2-5.5,2.2-6.7
				c2.5-1.2,5.5-0.2,6.7,2.2c42.4,84.4,127.5,136.9,221.9,136.9c73.6,0,142.9-32.4,190.3-88.8c1.8-2.1,4.9-2.4,7-0.6
				c2.1,1.8,2.4,4.9,0.6,7C790,753.9,717.9,787.6,641.3,787.6z"/>
		</g>
		<g>
			<path d="M881.2,615.7c-0.5,0-1.1-0.1-1.6-0.3c-2.6-0.9-4-3.7-3.1-6.3c8.7-25.6,13.1-52.4,13.1-79.7c0-37.4-8.1-73.2-24-106.7
				c-1.2-2.5-0.1-5.5,2.4-6.7c2.5-1.2,5.5-0.1,6.7,2.4c16.6,34.8,25,72.1,25,111c0,28.4-4.6,56.2-13.6,82.9
				C885.2,614.4,883.3,615.7,881.2,615.7z"/>
		</g>
		<g>
			<path d="M821.2,356.2c-1.3,0-2.6-0.5-3.6-1.5c-47-47.4-109.6-73.6-176.4-73.6c-37,0-72.6,7.9-105.8,23.6
				c-2.5,1.2-5.5,0.1-6.7-2.4c-1.2-2.5-0.1-5.5,2.4-6.7c34.5-16.3,71.6-24.6,110.1-24.6c69.4,0,134.6,27.2,183.5,76.5
				c1.9,2,1.9,5.1,0,7.1C823.8,355.8,822.5,356.2,821.2,356.2z"/>
		</g>
		<g>
			<path d="M641.3,698.6c-29.9,0-59.3-7.9-85-22.9c-24.9-14.5-45.9-35.3-60.6-60.2c-1.4-2.4-0.6-5.4,1.8-6.9
				c2.4-1.4,5.4-0.6,6.9,1.8c28.6,48.2,81.1,78.1,137.1,78.1c68.1,0,128.7-43.3,150.7-107.7c0.9-2.6,3.7-4,6.3-3.1
				c2.6,0.9,4,3.7,3.1,6.3C778.1,652.6,713.7,698.6,641.3,698.6z"/>
		</g>
		<g>
			<path d="M799.5,490c-2.2,0-4.2-1.4-4.8-3.7c-19.2-68.4-82.2-116.2-153.3-116.2c-2.2,0-4.5,0-6.8,0.1c-2.7,0.1-5.1-2-5.2-4.8
				c-0.1-2.8,2-5.1,4.8-5.2c2.4-0.1,4.8-0.1,7.2-0.1c37.7,0,73.3,12.1,103.1,35c28.8,22.2,50.1,53.6,59.9,88.5
				c0.7,2.7-0.8,5.4-3.5,6.2C800.4,490,799.9,490,799.5,490z"/>
		</g>
		<g>
			<path d="M821.2,428.6c-2.8,0-5-2.2-5-5v-72.3c0-2.8,2.2-5,5-5s5,2.2,5,5v72.3C826.2,426.3,824,428.6,821.2,428.6z"/>
		</g>
		<g>
			<path d="M850,534.4c-1.2,0-2.3-0.4-3.3-1.2l-50.6-44.4c-2.1-1.8-2.3-5-0.5-7.1c1.8-2.1,5-2.3,7.1-0.5l50.6,44.4
				c2.1,1.8,2.3,5,0.5,7.1C852.8,533.8,851.4,534.4,850,534.4z"/>
		</g>
		<g>
			<path d="M708.4,633.6c-2.8,0-5-2.2-5-5v-65.1c0-2.8,2.2-5,5-5s5,2.2,5,5v65.1C713.4,631.4,711.2,633.6,708.4,633.6z"/>
		</g>
		<g>
			<path d="M819.5,643.1c-1.9,0-3.7-1.1-4.6-3c-1.1-2.5,0-5.5,2.5-6.6l61.7-27.4c2.5-1.1,5.5,0,6.6,2.5c1.1,2.5,0,5.5-2.5,6.6
				l-61.7,27.4C820.9,643,820.2,643.1,819.5,643.1z"/>
		</g>
	</g>
</g>
</svg>
