<?xml version="1.0" encoding="utf-8"?>
<!-- Generator: Adobe Illustrator 27.7.0, SVG Export Plug-In . SVG Version: 6.00 Build 0)  -->
<svg version="1.1" id="Layer_1" xmlns="http://www.w3.org/2000/svg" xmlns:xlink="http://www.w3.org/1999/xlink" x="0px" y="0px"
	 viewBox="0 0 1920 1080" style="enable-background:new 0 0 1920 1080;" xml:space="preserve">
<style type="text/css">
	.st0{fill:#35FACC;}
	.st1{fill:#FBC0AA;}
	.st2{fill:#FFFFFF;}
	.st3{fill:#6B09FF;}
	.st4{fill:#FF4000;}
	.st5{fill:#B8A8FF;}
</style>
<g>
	<g>
		<path class="st2" d="M951,417.5c18.2-25.5,40.5-45.3,66.9-59.3c26.4-14,55.9-21.7,88.5-23c24.2-0.9,47.6,1.9,70.3,8.3
			c22.7,6.4,43.2,16.2,61.5,29.2c23.4,16.6,42.3,37.9,56.9,63.7c14.6,25.8,23.4,53.9,26.5,84.3c5.1,49.4-6.2,93.5-33.8,132.2
			c-13.9,19.4-30.7,35.7-50.6,48.8c-19.9,13.1-41.8,22.3-65.7,27.7c-29.6,6.9-59.2,7.4-88.8,1.6c-29.6-5.8-56.7-17.4-81.1-34.8
			c-24.1-17.2-43.7-38.6-58.6-64.1c-15-25.5-24-53-27-82.5c-2.5-23.1-0.8-46.1,5.3-68.9C927.2,458,937.1,436.9,951,417.5z
			 M1003.6,460.1c-31.4,44-45.9,89.7-43.4,137c1.1,21.2,5.6,39.2,13.2,53.9c7.7,14.7,19.4,27.7,35.2,39
			c15.9,11.4,32.1,18.3,48.5,20.8c16.4,2.5,34.9,0.8,55.6-5c45.6-13.3,84.3-42.2,116-86.7c17.4-24.5,30.6-49.9,39.5-76.4
			c8.9-26.5,12.8-51.6,11.6-75.3c-0.8-19.4-5.2-36.2-13-50.3c-7.9-14.2-19.9-27.1-36.1-38.6c-16.1-11.5-32-18.6-47.8-21.3
			s-33.1-1.4-52.1,4.1c-22.7,6.5-45.1,18.3-67.2,35.6C1041.5,413.9,1021.5,435.1,1003.6,460.1z"/>
	</g>
</g>
<g>
	<path class="st2" d="M789.8,340v334.8H639.6v-56.3H576v55.1c0.6,30.4,25.3,54.6,55.7,55.1h166.5c15.8-0.6,29.8-7.9,39.9-19.7
		c9.6-9.6,15.2-22.5,15.8-36V340H789.8z"/>
</g>
</svg>
