<?xml version="1.0" encoding="UTF-8"?>
<svg id="Layer_1" data-name="Layer 1" xmlns="http://www.w3.org/2000/svg" viewBox="0 0 1920 1080">
  <path d="m473.98,564.94h-14.25v99.8h-39.69v-256.62h53.94c20.42,0,41.23,11.56,41.23,45.85v65.12c0,33.91-20.8,45.85-41.23,45.85Zm3.08-109.81c0-7.71-2.31-10.79-6.93-10.79h-10.4v87.08h10.4c4.62,0,6.93-3.08,6.93-10.79v-65.5Z"/>
  <path d="m531,664.73v-256.62h39.69v219.63h41.23v36.99h-80.91Z"/>
  <path d="m689.77,664.73l-2.31-43.92h-23.51l-3.86,43.92h-35.83l30.44-256.62h45.09l30.43,256.62h-40.45Zm-12.33-186.88l-9.63,106.35h16.57l-6.93-106.35Z"/>
  <path d="m794.19,447.04v217.7h-39.68v-217.7h-28.9v-38.92h97.48v38.92h-28.9Z"/>
  <path d="m874.33,444.34v71.67h30.05v36.6h-30.05v112.13h-39.69v-256.62h80.53v36.22h-40.84Z"/>
  <path d="m1313.09,664.73c-6.16,0-9.63-25.05-9.63-39.69v-55.87c0-6.16-3.08-11.56-8.48-11.56h-9.64v107.12h-39.68v-256.62h53.55c19.66,0,41.62,11.56,41.62,45.08v58.57c0,11.94-6.55,21.96-16.95,28.9,10.4,6.94,18.1,16.57,18.1,29.28v52.02c0,16.18,2.32,29.28,5.01,41.61v1.16h-33.91Zm-10.78-209.61c0-7.71-2.31-10.79-6.93-10.79h-10.02v79.37h10.02c4.63,0,6.93-2.7,6.93-10.79v-57.8Z"/>
  <path d="m1461.81,664.73v-195.35l-5.39,58.56-16.57,136.78h-26.2l-14.65-136.78-4.62-58.56v195.35h-34.68v-256.62h52.02l13.87,100.95,5.39,58.18,5.01-58.18,12.71-100.95h51.26v256.62h-38.15Z"/>
  <path d="m963.98,458.84c12-16.84,26.74-29.9,44.21-39.15,17.47-9.25,36.95-14.32,58.42-15.2,15.97-.57,31.44,1.27,46.41,5.51,14.96,4.24,28.51,10.67,40.63,19.31,15.43,11,27.96,25.02,37.56,42.08,9.62,17.05,15.43,35.61,17.47,55.66,3.34,32.63-4.09,61.74-22.32,87.31-9.15,12.84-20.28,23.58-33.39,32.23-13.12,8.65-27.59,14.75-43.41,18.29-19.54,4.53-39.11,4.88-58.67,1.07-19.58-3.82-37.43-11.47-53.57-22.97-15.94-11.35-28.85-25.48-38.73-42.35-9.9-16.87-15.84-35.03-17.86-54.46-1.67-15.26-.51-30.42,3.5-45.48,4-15.06,10.58-29.02,19.74-41.86Zm34.77,28.18c-20.72,29.09-30.29,59.25-28.67,90.49.75,14,3.67,25.87,8.74,35.61,5.07,9.73,12.82,18.32,23.25,25.75,10.52,7.5,21.2,12.08,32.03,13.75,10.83,1.66,23.07.56,36.72-3.33,30.13-8.78,55.66-27.86,76.6-57.25,11.51-16.15,20.21-32.98,26.1-50.48,5.89-17.5,8.46-34.09,7.69-49.76-.56-12.8-3.43-23.88-8.62-33.25-5.19-9.37-13.14-17.87-23.86-25.51-10.63-7.57-21.14-12.27-31.56-14.09-10.42-1.82-21.89-.93-34.44,2.68-15,4.29-29.79,12.12-44.39,23.49-14.6,11.37-27.8,25.33-39.59,41.88Z"/>
  <g>
    <path d="m1085.44,355c0,4.23-3.39,7.62-7.62,7.62h-30.63c-4.23,0-7.62-3.39-7.62-7.62v-38.09c0-4.23,3.39-7.62,7.62-7.62h30.63c4.23,0,7.62,3.39,7.62,7.62v7.54h-8.7v-7.46h-28.24v38.17h28.24v-7.7h8.7v7.54Z"/>
    <path d="m1170.39,362.62h-8.7v-53.33h8.7v53.33Z"/>
    <path d="m1227.95,362.62h-30.4c-4.23,0-7.62-3.39-7.62-7.62v-38.09c0-4.23,3.39-7.62,7.62-7.62h30.4c4.23,0,7.62,3.39,7.62,7.62h0v38.09c0,4.23-3.39,7.62-7.62,7.62h0Zm-1.08-7.46v-38.17h-28.24v38.17h28.24Z"/>
    <path d="m879.51,309.29v45.79h-20.55v-7.7h-8.7v7.54c.08,4.16,3.46,7.46,7.62,7.54h22.78c2.15-.08,4.08-1.08,5.46-2.69,1.31-1.31,2.08-3.08,2.15-4.92v-45.56h-8.77Z"/>
    <path d="m945.54,309.29v45.63h-28.24v-45.63h-8.7v45.71c0,4.23,3.39,7.62,7.62,7.62h38.01v-53.33h-8.7Z"/>
    <polygon points="1142.54 309.29 1102.37 309.29 1101.37 309.29 1101.37 316.98 1102.37 316.98 1102.37 316.98 1118.06 316.98 1118.06 362.62 1126.76 362.62 1126.76 316.98 1142.54 316.98 1142.54 316.98 1143.54 316.98 1143.54 309.29 1142.54 309.29"/>
    <polygon points="1011.33 309.29 1011.33 348.92 1011.33 354.31 1010.26 354.31 989.71 309.14 983.09 309.14 974.4 309.14 974.4 329.68 974.4 362.62 983.09 362.62 983.09 329.68 983.09 322.83 983.09 317.37 984.17 317.37 1004.79 362.62 1011.33 362.62 1020.03 362.62 1020.03 309.29 1011.33 309.29"/>
    <polygon points="1292.28 309.29 1292.28 348.92 1292.28 354.31 1291.21 354.31 1270.66 309.14 1264.04 309.14 1255.35 309.14 1255.35 329.68 1255.35 362.62 1264.04 362.62 1264.04 329.68 1264.04 322.83 1264.04 317.37 1265.12 317.37 1285.74 362.62 1292.28 362.62 1300.98 362.62 1300.98 309.29 1292.28 309.29"/>
  </g>
  <polygon points="1573.61 738.31 346.39 738.31 346.39 335.88 760.99 335.88 760.99 338.69 349.2 338.69 349.2 735.5 1573.61 735.5 1573.61 738.31"/>
</svg>