<?xml version="1.0" encoding="utf-8"?>
<!-- Generator: Adobe Illustrator 27.7.0, SVG Export Plug-In . SVG Version: 6.00 Build 0)  -->
<svg version="1.1" id="Layer_1" xmlns="http://www.w3.org/2000/svg" xmlns:xlink="http://www.w3.org/1999/xlink" x="0px" y="0px"
	 viewBox="0 0 1920 1080" style="enable-background:new 0 0 1920 1080;" xml:space="preserve">
<style type="text/css">
	.st0{fill:#35FACC;}
	.st1{fill:#FBC0AA;}
	.st2{fill:#FFFFFF;}
	.st3{fill:#6B09FF;}
	.st4{fill:#FF4000;}
	.st5{fill:#B8A8FF;}
</style>
<g>
	<path class="st2" d="M474,564.9h-14.3v99.8H420V408.1H474c20.4,0,41.2,11.6,41.2,45.9v65.1C515.2,553,494.4,564.9,474,564.9z
		 M477.1,455.1c0-7.7-2.3-10.8-6.9-10.8h-10.4v87.1h10.4c4.6,0,6.9-3.1,6.9-10.8V455.1z"/>
	<path class="st2" d="M531,664.7V408.1h39.7v219.6h41.2v37H531z"/>
	<path class="st2" d="M689.8,664.7l-2.3-43.9H664l-3.9,43.9h-35.8l30.4-256.6h45.1l30.4,256.6H689.8z M677.4,477.9l-9.6,106.3h16.6
		L677.4,477.9z"/>
	<path class="st2" d="M794.2,447v217.7h-39.7V447h-28.9v-38.9h97.5V447H794.2z"/>
	<path class="st2" d="M874.3,444.3V516h30.1v36.6h-30.1v112.1h-39.7V408.1h80.5v36.2H874.3z"/>
	<path class="st2" d="M1313.1,664.7c-6.2,0-9.6-25-9.6-39.7v-55.9c0-6.2-3.1-11.6-8.5-11.6h-9.6v107.1h-39.7V408.1h53.6
		c19.7,0,41.6,11.6,41.6,45.1v58.6c0,11.9-6.6,22-17,28.9c10.4,6.9,18.1,16.6,18.1,29.3v52c0,16.2,2.3,29.3,5,41.6v1.2H1313.1z
		 M1302.3,455.1c0-7.7-2.3-10.8-6.9-10.8h-10v79.4h10c4.6,0,6.9-2.7,6.9-10.8V455.1z"/>
	<path class="st2" d="M1461.8,664.7V469.4l-5.4,58.6l-16.6,136.8h-26.2L1399,527.9l-4.6-58.6v195.3h-34.7V408.1h52l13.9,101
		l5.4,58.2l5-58.2l12.7-101h51.3v256.6H1461.8z"/>
	<g>
		<g>
			<path class="st2" d="M964,458.8c12-16.8,26.7-29.9,44.2-39.1c17.5-9.3,36.9-14.3,58.4-15.2c16-0.6,31.4,1.3,46.4,5.5
				c15,4.2,28.5,10.7,40.6,19.3c15.4,11,28,25,37.6,42.1c9.6,17.1,15.4,35.6,17.5,55.7c3.3,32.6-4.1,61.7-22.3,87.3
				c-9.1,12.8-20.3,23.6-33.4,32.2c-13.1,8.7-27.6,14.7-43.4,18.3c-19.5,4.5-39.1,4.9-58.7,1.1c-19.6-3.8-37.4-11.5-53.6-23
				c-15.9-11.4-28.8-25.5-38.7-42.4c-9.9-16.9-15.8-35-17.9-54.5c-1.7-15.3-0.5-30.4,3.5-45.5C948.2,485.6,954.8,471.7,964,458.8z
				 M998.8,487c-20.7,29.1-30.3,59.2-28.7,90.5c0.8,14,3.7,25.9,8.7,35.6c5.1,9.7,12.8,18.3,23.2,25.7c10.5,7.5,21.2,12.1,32,13.7
				c10.8,1.7,23.1,0.6,36.7-3.3c30.1-8.8,55.7-27.9,76.6-57.2c11.5-16.2,20.2-33,26.1-50.5c5.9-17.5,8.5-34.1,7.7-49.8
				c-0.6-12.8-3.4-23.9-8.6-33.2c-5.2-9.4-13.1-17.9-23.9-25.5c-10.6-7.6-21.1-12.3-31.6-14.1c-10.4-1.8-21.9-0.9-34.4,2.7
				c-15,4.3-29.8,12.1-44.4,23.5C1023.7,456.5,1010.5,470.5,998.8,487z"/>
		</g>
	</g>
	<g>
		<path class="st2" d="M1085.4,355c0,4.2-3.4,7.6-7.6,7.6h-30.6c-4.2,0-7.6-3.4-7.6-7.6v-38.1c0-4.2,3.4-7.6,7.6-7.6h30.6
			c4.2,0,7.6,3.4,7.6,7.6v7.5h-8.7V317h-28.2v38.2h28.2v-7.7h8.7V355z"/>
		<path class="st2" d="M1170.4,362.6h-8.7v-53.3h8.7V362.6z"/>
		<path class="st2" d="M1228,362.6h-30.4c-4.2,0-7.6-3.4-7.6-7.6v-38.1c0-4.2,3.4-7.6,7.6-7.6h30.4c4.2,0,7.6,3.4,7.6,7.6l0,0V355
			C1235.6,359.2,1232.2,362.6,1228,362.6L1228,362.6z M1226.9,355.2V317h-28.2v38.2H1226.9z"/>
		<path class="st2" d="M879.5,309.3v45.8H859v-7.7h-8.7v7.5c0.1,4.2,3.5,7.5,7.6,7.5h22.8c2.2-0.1,4.1-1.1,5.5-2.7
			c1.3-1.3,2.1-3.1,2.2-4.9v-45.6H879.5z"/>
		<path class="st2" d="M945.5,309.3v45.6h-28.2v-45.6h-8.7V355c0,4.2,3.4,7.6,7.6,7.6h38v-53.3H945.5z"/>
		<polygon class="st2" points="1142.5,309.3 1102.4,309.3 1101.4,309.3 1101.4,317 1102.4,317 1102.4,317 1118.1,317 1118.1,362.6 
			1126.8,362.6 1126.8,317 1142.5,317 1142.5,317 1143.5,317 1143.5,309.3 		"/>
		<polygon class="st2" points="1011.3,309.3 1011.3,348.9 1011.3,354.3 1010.3,354.3 989.7,309.1 983.1,309.1 974.4,309.1 
			974.4,329.7 974.4,362.6 983.1,362.6 983.1,329.7 983.1,322.8 983.1,317.4 984.2,317.4 1004.8,362.6 1011.3,362.6 1020,362.6 
			1020,309.3 		"/>
		<polygon class="st2" points="1292.3,309.3 1292.3,348.9 1292.3,354.3 1291.2,354.3 1270.7,309.1 1264,309.1 1255.3,309.1 
			1255.3,329.7 1255.3,362.6 1264,362.6 1264,329.7 1264,322.8 1264,317.4 1265.1,317.4 1285.7,362.6 1292.3,362.6 1301,362.6 
			1301,309.3 		"/>
	</g>
	<polygon class="st2" points="1573.6,738.3 346.4,738.3 346.4,335.9 761,335.9 761,338.7 349.2,338.7 349.2,735.5 1573.6,735.5 	"/>
</g>
</svg>
