<?xml version="1.0" standalone="no"?>
<!DOCTYPE svg PUBLIC "-//W3C//DTD SVG 20010904//EN"
 "http://www.w3.org/TR/2001/REC-SVG-20010904/DTD/svg10.dtd">
<svg version="1.0" xmlns="http://www.w3.org/2000/svg"
 width="1000.000000pt" height="1000.000000pt" viewBox="0 0 1000.000000 1000.000000"
 preserveAspectRatio="xMidYMid meet">
<metadata>
Created by potrace 1.11, written by Peter Selinger 2001-2013
</metadata>
<g transform="translate(0.000000,1000.000000) scale(0.100000,-0.100000)"
fill="#000000" stroke="none">
<path d="M4685 9030 c-468 -22 -949 -130 -1375 -310 l-122 -51 -45 30 c-160
106 -371 18 -414 -174 -30 -133 57 -270 198 -311 164 -48 335 83 335 256 l0
56 127 52 c323 134 644 218 1026 269 189 25 734 25 930 0 834 -107 1554 -439
2172 -1000 l113 -102 0 -418 0 -419 -59 80 c-148 200 -382 441 -586 606 -309
248 -707 462 -1076 578 l-107 33 -16 58 c-21 74 -85 145 -158 177 -42 18 -65
21 -118 18 -80 -6 -135 -33 -187 -92 -96 -109 -85 -280 24 -376 111 -98 274
-91 373 16 l41 45 85 -26 c211 -64 521 -208 734 -340 244 -151 531 -400 729
-630 358 -416 604 -919 711 -1455 25 -125 60 -377 60 -433 0 -12 -111 79 -319
262 l-319 280 -33 98 c-283 856 -998 1523 -1869 1743 -214 54 -406 80 -602 80
l-127 0 -15 29 c-61 117 -196 175 -320 136 -197 -62 -255 -309 -106 -453 53
-52 121 -76 203 -70 34 2 78 12 98 22 51 24 108 83 131 135 l20 44 162 -6
c238 -10 444 -46 666 -118 531 -173 999 -527 1309 -990 135 -201 219 -372 305
-624 l41 -120 385 -338 385 -338 -1 -142 c-2 -259 -73 -628 -178 -922 -68
-188 -227 -503 -339 -673 -127 -190 -223 -309 -386 -475 -270 -276 -531 -465
-884 -640 l-138 -68 -46 41 c-85 75 -198 88 -301 36 -76 -39 -123 -102 -143
-194 l-10 -50 -102 -21 c-944 -197 -1913 31 -2667 629 -133 105 -403 375 -505
503 -93 119 -202 279 -274 404 -62 108 -80 126 -123 125 -38 -1 -78 -40 -78
-75 0 -51 196 -360 356 -562 107 -135 376 -404 504 -506 512 -405 1052 -635
1705 -725 100 -14 196 -18 415 -18 311 0 423 10 684 64 l139 29 48 -43 c160
-143 410 -48 445 171 6 41 7 42 98 83 556 254 1059 690 1412 1224 l39 59 485
216 c397 177 487 221 497 241 25 53 95 302 127 455 35 164 56 295 78 490 15
143 15 596 -1 750 -43 420 -144 820 -302 1200 l-61 147 21 29 c48 65 64 168
39 251 -16 54 -87 131 -145 158 -126 59 -286 3 -349 -122 -91 -179 29 -383
230 -394 l60 -3 28 -62 c190 -418 306 -918 327 -1402 20 -449 -37 -913 -159
-1307 l-29 -95 -353 -156 c-194 -86 -354 -156 -356 -155 -1 2 22 54 52 117
321 679 398 1488 211 2229 -66 264 -149 483 -276 729 l-79 154 0 572 0 572
-112 109 c-420 407 -953 727 -1520 913 -339 111 -696 180 -1008 196 -233 11
-308 12 -465 5z m-1614 -479 c24 -24 29 -38 29 -76 0 -38 -5 -52 -29 -76 -24
-23 -38 -29 -74 -29 -82 0 -133 71 -104 143 20 46 52 67 105 67 35 0 49 -6 73
-29z m2507 -265 c77 -40 73 -154 -5 -191 -74 -35 -153 15 -153 97 0 32 7 47
34 74 38 38 77 44 124 20z m-984 -650 c44 -18 66 -52 66 -101 -1 -94 -110
-140 -179 -76 -56 52 -38 146 33 177 39 17 40 17 80 0z m3842 -664 c53 -42 59
-113 15 -161 -24 -26 -37 -31 -74 -31 -52 0 -101 33 -111 76 -9 36 10 90 41
114 32 25 100 26 129 2z m-2472 -5016 c45 -19 66 -52 66 -104 0 -36 -5 -49
-31 -73 -69 -64 -178 -18 -179 76 0 48 21 82 64 101 39 17 40 17 80 0z"/>
<path d="M1090 7480 l0 -190 320 0 320 0 0 -805 0 -805 235 0 235 0 0 805 0
805 320 0 320 0 0 190 0 190 -875 0 -875 0 0 -190z"/>
<path d="M2470 5665 l0 -995 780 0 780 0 0 185 0 185 -545 0 -545 0 0 230 0
230 465 0 465 0 0 180 0 180 -465 0 -465 0 0 210 0 210 528 2 527 3 0 185 0
185 -762 3 -763 2 0 -995z"/>
<path d="M6057 6636 c-221 -60 -273 -356 -84 -483 68 -46 140 -59 218 -38 74
18 70 21 151 -93 173 -240 293 -544 327 -827 25 -204 9 -476 -40 -667 -85
-338 -293 -683 -542 -901 l-67 -59 0 425 0 425 25 55 c31 72 71 213 85 301 16
100 13 307 -5 411 -69 392 -330 739 -690 918 -161 79 -313 117 -506 124 l-147
6 -38 45 c-71 85 -208 120 -307 78 -57 -25 -122 -90 -147 -148 -26 -62 -25
-161 4 -219 84 -175 319 -206 446 -61 22 25 46 66 54 91 l13 46 124 -2 c95 -1
146 -7 221 -27 306 -78 571 -293 713 -576 89 -177 121 -332 112 -543 -6 -154
-29 -258 -87 -394 l-40 -93 0 -493 0 -494 -92 -51 c-236 -130 -465 -199 -740
-223 -224 -20 -471 9 -698 81 -130 42 -375 166 -490 247 -121 86 -315 279
-411 408 -65 88 -78 100 -107 103 -73 7 -111 -59 -73 -124 70 -118 235 -304
375 -421 524 -440 1227 -575 1879 -363 670 219 1183 801 1316 1492 107 556
-39 1159 -385 1590 l-54 67 16 61 c15 51 15 68 5 114 -25 110 -106 192 -212
215 -60 13 -61 13 -122 -3z m144 -185 c24 -24 29 -38 29 -76 0 -38 -5 -52 -29
-76 -24 -24 -38 -29 -76 -29 -38 0 -52 5 -76 29 -24 24 -29 38 -29 76 0 38 5
52 29 76 24 24 38 29 76 29 38 0 52 -5 76 -29z m-1589 -270 c28 -25 33 -36 33
-76 0 -40 -5 -51 -33 -76 -35 -31 -94 -39 -133 -19 -25 14 -49 62 -49 97 2 92
112 137 182 74z"/>
<path d="M5070 5615 c-105 -33 -180 -139 -180 -254 1 -112 56 -200 155 -247
54 -26 142 -32 189 -14 24 9 26 7 37 -33 6 -23 9 -78 7 -122 -17 -329 -398
-497 -653 -290 -50 41 -68 49 -107 46 -31 -2 -58 -38 -58 -78 0 -30 7 -43 48
-80 61 -57 167 -109 262 -129 285 -60 580 125 655 412 23 91 20 218 -10 310
l-24 78 19 57 c11 32 20 71 20 87 0 102 -79 215 -176 251 -63 24 -119 26 -184
6z m135 -160 c73 -35 80 -144 12 -185 -50 -31 -93 -26 -133 14 -42 42 -47 97
-13 140 36 46 80 56 134 31z"/>
<path d="M7283 4589 c-70 -27 -137 -102 -159 -177 -28 -94 -1 -193 72 -265 37
-37 38 -38 25 -75 -30 -88 -185 -386 -254 -490 -251 -374 -583 -665 -981 -861
-243 -119 -503 -200 -771 -238 -149 -21 -497 -23 -635 -4 -561 77 -1047 310
-1442 690 -137 132 -235 249 -349 419 -58 86 -94 130 -111 136 -37 13 -83 -9
-99 -46 -15 -37 -4 -63 83 -193 138 -206 360 -448 548 -598 708 -565 1650
-735 2508 -451 757 250 1377 844 1653 1580 18 48 22 52 60 58 219 35 297 325
127 470 -76 66 -178 82 -275 45z m180 -179 c40 -45 38 -101 -7 -146 -93 -93
-232 26 -161 137 37 58 120 63 168 9z"/>
<path d="M3895 4285 c-42 -41 -34 -74 36 -155 218 -253 538 -407 891 -427 106
-6 109 -7 123 -33 8 -15 29 -40 47 -55 113 -96 270 -91 370 10 50 50 71 98 76
172 11 160 -105 286 -263 287 -116 0 -226 -77 -256 -180 l-14 -46 -90 7 c-291
22 -512 123 -723 333 -125 124 -150 135 -197 87z m1356 -396 c65 -69 18 -178
-77 -179 -78 0 -130 73 -101 143 20 46 52 67 105 67 36 0 49 -5 73 -31z"/>
<path d="M1267 3240 c-42 -33 -42 -61 3 -150 164 -326 412 -668 695 -959 669
-687 1532 -1106 2500 -1213 75 -8 236 -13 430 -12 335 0 500 15 775 71 877
177 1656 623 2257 1295 41 46 43 46 80 36 82 -22 187 8 252 73 56 55 76 105
76 189 0 65 -4 82 -29 128 -56 100 -147 149 -263 139 -179 -14 -289 -195 -223
-368 l19 -52 -59 -67 c-32 -36 -119 -124 -192 -196 -546 -529 -1247 -890
-1998 -1028 -813 -149 -1659 -39 -2395 313 -752 360 -1375 956 -1762 1687 -71
136 -107 160 -166 114z m6853 -575 c32 -17 60 -61 60 -95 0 -53 -57 -110 -110
-110 -29 0 -76 26 -94 52 -9 12 -16 40 -16 61 0 31 7 46 34 73 38 38 77 44
126 19z"/>
</g>
</svg>
